<?xml version="1.0" encoding="UTF-8"?>
<svg version="1.1" xmlns="http://www.w3.org/2000/svg" width="512" height="512">
<path d="M0 0 C1.38408302 -0.00218285 1.38408302 -0.00218285 2.79612732 -0.00440979 C4.73317648 -0.00276063 6.6702401 0.0086894 8.60717773 0.02954102 C11.55444524 0.05855291 14.49991577 0.05011708 17.44726562 0.03710938 C19.3398524 0.04334661 21.23243355 0.05173744 23.125 0.0625 C24.4315731 0.05809654 24.4315731 0.05809654 25.76454163 0.05360413 C32.06724576 0.14977936 37.75538867 0.76718739 42.72392273 4.9510498 C46.7022056 9.18949089 48.37273856 13.52883164 49.86328125 19.0625 C50.36047069 20.69942401 50.86056193 22.33546894 51.36328125 23.97070312 C52.12734667 26.51374629 52.87058733 29.05672303 53.56445312 31.61987305 C55.89342003 41.27946322 55.89342003 41.27946322 61.80352783 48.83737183 C66.32961128 51.18791395 71.06795319 52.29461568 75.99609375 53.49609375 C78.58789063 54.7421875 78.58789063 54.7421875 80.62109375 55.93359375 C84.60483996 57.7779207 85.8136732 57.54511201 89.99609375 56.49609375 C92.34427694 55.44433057 94.56765212 54.36323715 96.828125 53.15234375 C98.13460029 52.47624292 99.44124635 51.80047199 100.74804688 51.125 C102.77795934 50.06363667 104.80531456 48.9978314 106.8293457 47.92529297 C115.40683824 43.39784776 122.42952265 39.77974054 132.43359375 40.87109375 C141.59684539 45.05082257 148.88383099 54.1478121 155.98510742 61.18994141 C156.95890711 62.15208767 157.93719007 63.10971538 158.91967773 64.06298828 C171.35960148 76.13576506 171.35960148 76.13576506 171.49609375 84.68359375 C171.11150962 92.93841747 166.79287778 100.07403386 162.921875 107.16796875 C162.09671387 108.69526611 162.09671387 108.69526611 161.25488281 110.25341797 C160.13446322 112.31268082 158.99474898 114.36157573 157.83496094 116.39892578 C154.73297777 121.72975642 154.73297777 121.72975642 154.42578125 127.66015625 C154.94398438 128.59601563 155.4621875 129.531875 155.99609375 130.49609375 C156.57282904 131.85526146 157.13558092 133.2204111 157.6875 134.58984375 C158.62369275 136.80266298 159.56572397 139.0126196 160.51757812 141.21875 C162.24367161 145.31593155 163.48102351 149.03685548 163.99609375 153.49609375 C165.19878906 153.73585937 166.40148437 153.975625 167.640625 154.22265625 C174.12673941 155.66740047 180.38408755 157.77468386 186.68359375 159.87109375 C188.47893555 160.45117188 188.47893555 160.45117188 190.31054688 161.04296875 C198.59804884 163.79163384 204.87025955 166.09211102 209.99609375 173.49609375 C210.94131527 176.3317583 211.14288502 178.17095385 211.18896484 181.1159668 C211.21305923 182.51838875 211.21305923 182.51838875 211.23764038 183.94914246 C211.28227088 188.22967693 211.32316846 192.51005843 211.34619141 196.79077148 C211.36272804 199.04380641 211.38998747 201.29678938 211.42822266 203.54956055 C211.48319032 206.80675331 211.50489798 210.06271739 211.51953125 213.3203125 C211.54220062 214.31955246 211.56487 215.31879242 211.58822632 216.34831238 C211.56856578 222.90663123 210.55345263 227.59920565 205.99609375 232.49609375 C201.65703423 235.93857162 196.37468531 237.60602619 191.1640625 239.29296875 C190.446241 239.53146545 189.72841949 239.76996216 188.98884583 240.01568604 C187.48665505 240.51319409 185.98327186 241.00711517 184.47875977 241.49755859 C182.16989207 242.25056235 179.86503572 243.01496161 177.56054688 243.78125 C176.09527059 244.26498528 174.62978314 244.74808151 173.1640625 245.23046875 C172.47450974 245.4585321 171.78495697 245.68659546 171.07450867 245.92156982 C166.22951667 247.49609375 166.22951667 247.49609375 163.99609375 247.49609375 C163.90457031 248.30304688 163.81304687 249.11 163.71875 249.94140625 C162.82026229 254.36099446 161.20249467 258.23782032 159.43359375 262.37109375 C158.93956055 263.54671875 158.93956055 263.54671875 158.43554688 264.74609375 C157.62812589 266.66518131 156.81289606 268.58098025 155.99609375 270.49609375 C157.57692749 269.87565186 157.57692749 269.87565186 159.18969727 269.24267578 C163.12267925 267.70005069 167.05730768 266.16166361 170.99243164 264.62451172 C172.69112182 263.9602917 174.38937121 263.29494321 176.0871582 262.62841797 C178.53610366 261.66723022 180.98663735 260.71019322 183.4375 259.75390625 C184.18882706 259.45799591 184.94015411 259.16208557 185.71424866 258.85720825 C195.2781708 255.13718081 205.05031812 252.30077195 215.24609375 255.55859375 C222.70282126 258.90714498 227.77730539 264.42185539 231.0859375 271.82421875 C233.88903014 280.05304008 233.49311175 287.56316966 229.99609375 295.49609375 C227.29851835 300.53496101 223.47661778 304.07619047 219.12109375 307.703125 C217.76965126 308.8434046 216.45155682 310.02537425 215.18359375 311.2578125 C207.88323179 318.2785235 199.1975986 323.37829514 190.68652344 328.78173828 C186.37340167 331.53008139 182.09249482 334.32751695 177.80859375 337.12109375 C169.57150201 342.47784296 161.32415503 347.81864823 153.07275391 353.15332031 C150.25746055 354.97369575 147.44277735 356.79501327 144.62817383 358.61645508 C143.20754294 359.53572511 141.78680735 360.45483336 140.3659668 361.3737793 C136.84737616 363.64965944 133.3302999 365.927811 129.81640625 368.2109375 C125.54915299 370.98228833 121.27388005 373.7410372 116.99609375 376.49609375 C116.23538574 376.98754883 115.47467773 377.47900391 114.69091797 377.98535156 C103.36645301 385.28767087 91.89864523 392.17548446 79.99609375 398.49609375 C79.30918457 398.8621875 78.62227539 399.22828125 77.91455078 399.60546875 C60.73779226 408.68525875 41.67332554 416.65127521 21.99609375 417.49609375 C20.68318359 417.5734375 20.68318359 417.5734375 19.34375 417.65234375 C2.76110446 418.16454902 -13.57364254 414.44535523 -29.69140625 410.99609375 C-58.80224378 404.77178219 -87.88825889 403.4421722 -117.56640625 402.93359375 C-119.94596927 402.89028768 -122.32552665 402.84667008 -124.70507812 402.80273438 C-130.47129408 402.69693483 -136.23756746 402.59495962 -142.00390625 402.49609375 C-141.97925293 403.23867432 -141.95459961 403.98125488 -141.92919922 404.74633789 C-141.91002441 405.72723389 -141.89084961 406.70812988 -141.87109375 407.71875 C-141.84644043 408.68820557 -141.82178711 409.65766113 -141.79638672 410.65649414 C-142.12563835 415.16181853 -144.02092548 418.19378606 -147.00390625 421.49609375 C-151.68682812 425.22331728 -155.3885949 426.59376693 -161.27832031 426.6730957 C-162.11308899 426.68593094 -162.94785767 426.69876617 -163.80792236 426.71199036 C-165.15016876 426.72307076 -165.15016876 426.72307076 -166.51953125 426.734375 C-167.449328 426.74244675 -168.37912476 426.75051849 -169.33709717 426.75883484 C-171.30397694 426.77265142 -173.27088044 426.7833844 -175.23779297 426.79125977 C-177.24144556 426.80277501 -179.24506759 426.82321956 -181.24853516 426.8527832 C-184.15157816 426.89560871 -187.05371095 426.91164984 -189.95703125 426.921875 C-190.84376526 426.93938309 -191.73049927 426.95689117 -192.644104 426.97492981 C-199.20656747 426.95227292 -204.51298254 425.56326513 -209.53057861 421.15473938 C-215.75474264 414.36362166 -215.29799195 406.27912379 -215.27856445 397.62915039 C-215.28367538 396.45104294 -215.28878632 395.27293549 -215.29405212 394.05912781 C-215.30553248 390.84418311 -215.30802786 387.62939914 -215.30548882 384.41443944 C-215.30441495 381.72322226 -215.30931303 379.03202856 -215.31409425 376.34081644 C-215.32516765 369.98834199 -215.32563894 363.63592668 -215.31958008 357.28344727 C-215.31354022 350.74583591 -215.32585643 344.20843977 -215.34715015 337.67086512 C-215.36480313 332.04260616 -215.37076174 326.41441549 -215.3675124 320.78612989 C-215.36570541 317.43128666 -215.36960334 314.07671928 -215.38222694 310.72187996 C-215.39458473 306.97856254 -215.38780307 303.23574132 -215.3762207 299.49243164 C-215.38386444 298.39140106 -215.39150818 297.29037048 -215.39938354 296.15597534 C-215.34796762 288.62492634 -214.63134695 282.69162974 -209.69140625 276.68359375 C-203.42751245 271.58507554 -198.36803624 271.04811974 -190.56640625 271.09765625 C-189.56810791 271.09478607 -188.56980957 271.09191589 -187.54125977 271.08895874 C-185.43668041 271.08692293 -183.33208192 271.09241892 -181.22753906 271.10498047 C-178.01454169 271.12104059 -174.80280221 271.10511494 -171.58984375 271.0859375 C-169.54036182 271.08792002 -167.49088067 271.09176387 -165.44140625 271.09765625 C-164.48500244 271.09158356 -163.52859863 271.08551086 -162.54321289 271.07925415 C-156.3821508 271.14390812 -151.84869587 271.87196915 -147.140625 276.21484375 C-146.66238281 276.80265625 -146.18414062 277.39046875 -145.69140625 277.99609375 C-145.20027344 278.58390625 -144.70914063 279.17171875 -144.203125 279.77734375 C-143.00390625 281.49609375 -143.00390625 281.49609375 -142.00390625 284.49609375 C-138.6353811 284.55260465 -138.6353811 284.55260465 -135.00390625 283.49609375 C-133.01005136 281.41822812 -131.74860806 279.27777402 -131.00390625 276.49609375 C-131.51616347 273.0984982 -132.44009857 270.16653158 -133.81640625 267.02734375 C-134.16960937 266.20878906 -134.5228125 265.39023437 -134.88671875 264.546875 C-135.25539063 263.70511719 -135.6240625 262.86335938 -136.00390625 261.99609375 C-136.73757276 260.32097406 -137.46688346 258.64393853 -138.19140625 256.96484375 C-138.51496094 256.22685547 -138.83851563 255.48886719 -139.171875 254.72851562 C-140.06327846 252.33679227 -140.56660886 250.0072409 -141.00390625 247.49609375 C-141.64424805 247.32956299 -142.28458984 247.16303223 -142.94433594 246.99145508 C-150.47631892 244.98997265 -157.87123925 242.67716199 -165.25390625 240.18359375 C-166.95160156 239.63541992 -166.95160156 239.63541992 -168.68359375 239.07617188 C-181.19578381 234.83462735 -181.19578381 234.83462735 -185.00390625 229.49609375 C-187.82233654 223.38817705 -188.45999695 218.30018922 -188.4375 211.625 C-188.44274185 210.70323471 -188.4479837 209.78146942 -188.4533844 208.83177185 C-188.4597739 206.89298504 -188.45850769 204.95415931 -188.44995117 203.01538086 C-188.44143947 200.07009006 -188.47024839 197.12674051 -188.50195312 194.18164062 C-188.50356553 192.28776099 -188.50298685 190.39387796 -188.5 188.5 C-188.51685097 187.19646324 -188.51685097 187.19646324 -188.53404236 185.86659241 C-188.45612833 178.93650989 -186.9351763 172.75473796 -182.20263672 167.49365234 C-175.64046322 163.387995 -168.59695315 161.02795832 -161.24511719 158.77099609 C-159.10774166 158.11459397 -156.97755796 157.43803523 -154.84765625 156.7578125 C-144.50837976 153.49609375 -144.50837976 153.49609375 -141.00390625 153.49609375 C-140.86855469 152.87605469 -140.73320312 152.25601563 -140.59375 151.6171875 C-138.9440121 144.83054118 -136.48260916 138.87341756 -133.25366211 132.71264648 C-131.25144167 128.72889079 -130.76249458 126.73962459 -132.00390625 122.49609375 C-133.05852217 120.23408228 -134.18140317 118.00340268 -135.34765625 115.796875 C-136.02402793 114.4918423 -136.69978971 113.18649335 -137.375 111.88085938 C-138.43465617 109.84785498 -139.49902226 107.81778603 -140.57470703 105.79321289 C-149.68575273 88.58649645 -149.68575273 88.58649645 -147.19140625 78.49609375 C-145.10459458 73.72623851 -141.26870897 70.45817944 -137.546875 66.9296875 C-135.40710379 64.88194946 -133.47426268 62.81753272 -131.56640625 60.55859375 C-115.9231487 42.40058085 -115.9231487 42.40058085 -105.75390625 40.49609375 C-94.43715465 39.85713351 -83.35897649 47.86275952 -73.88085938 53.15820312 C-72.82189453 53.72990234 -71.76292969 54.30160156 -70.671875 54.890625 C-69.72594482 55.41503174 -68.78001465 55.93943848 -67.80541992 56.47973633 C-62.9725212 58.23305723 -58.97392589 56.68670385 -54.4375 54.68359375 C-53.62216797 54.33039063 -52.80683594 53.9771875 -51.96679688 53.61328125 C-51.13341797 53.24460938 -50.30003906 52.8759375 -49.44140625 52.49609375 C-47.77538803 51.76248141 -46.10746721 51.03317176 -44.4375 50.30859375 C-43.70587646 49.98503906 -42.97425293 49.66148438 -42.22045898 49.328125 C-39.83455082 48.43252251 -37.51111722 47.93227411 -35.00390625 47.49609375 C-34.64232422 45.69011719 -34.64232422 45.69011719 -34.2734375 43.84765625 C-32.83384767 37.38909259 -30.76470983 31.14926261 -28.69140625 24.87109375 C-28.31306641 23.68257812 -27.93472656 22.4940625 -27.54492188 21.26953125 C-22.76328563 6.77089816 -22.76328563 6.77089816 -17.11639404 3.35395813 C-11.27369071 0.62512102 -6.40754543 -0.08283107 0 0 Z M-9.00390625 15.49609375 C-11.5907401 21.07312703 -13.82273927 26.61277535 -15.625 32.48828125 C-16.0897093 33.9494688 -16.55522706 35.41039943 -17.02148438 36.87109375 C-17.73829331 39.13329835 -18.4493033 41.39677761 -19.14672852 43.66503906 C-19.83142548 45.88251545 -20.53874046 48.09170501 -21.25 50.30078125 C-21.45225693 50.97889862 -21.65451385 51.65701599 -21.86289978 52.35568237 C-22.89878758 55.51635381 -23.71957862 57.27678701 -26.38037109 59.32910156 C-28.81689031 60.41290594 -31.22860874 61.45093188 -33.734375 62.36328125 C-35.0637207 62.85634766 -35.0637207 62.85634766 -36.41992188 63.359375 C-38.24782706 64.02664412 -40.07594747 64.69332403 -41.90429688 65.359375 C-47.38886005 67.39480134 -52.50423285 69.68304244 -57.6105957 72.54736328 C-61.23089673 73.98248414 -64.15562805 74.21277899 -67.84617615 72.78173828 C-69.9606907 71.7591681 -72.01404606 70.65854266 -74.0703125 69.5234375 C-75.62303617 68.69854756 -77.17577088 67.87367839 -78.72851562 67.04882812 C-81.15531643 65.74004429 -83.57947388 64.42650012 -86.00268555 63.11108398 C-88.35249157 61.84097639 -90.71085866 60.58800524 -93.0703125 59.3359375 C-93.79126602 58.93704819 -94.51221954 58.53815887 -95.25502014 58.12718201 C-98.06263453 56.64109101 -100.39499176 55.52004916 -103.59790039 55.39404297 C-107.15764262 57.024553 -109.69770006 59.55949999 -112.43359375 62.2890625 C-113.0281839 62.87271072 -113.62277405 63.45635895 -114.23538208 64.05769348 C-115.48597675 65.29245171 -116.73131353 66.53255507 -117.97167969 67.77758789 C-119.87451078 69.67920109 -121.80475807 71.54958734 -123.73828125 73.41992188 C-124.95100491 74.62450652 -126.16200375 75.83083065 -127.37109375 77.0390625 C-127.9511618 77.59554977 -128.53122986 78.15203705 -129.12887573 78.72538757 C-131.6931933 81.35024216 -132.99750689 82.78080698 -133.03100586 86.52514648 C-131.94744378 89.65941484 -130.71128967 92.5334228 -129.203125 95.48828125 C-128.35524414 97.16470703 -128.35524414 97.16470703 -127.49023438 98.875 C-126.89662109 100.02871094 -126.30300781 101.18242187 -125.69140625 102.37109375 C-125.10939453 103.51707031 -124.52738281 104.66304688 -123.92773438 105.84375 C-123.07405273 107.52404297 -123.07405273 107.52404297 -122.203125 109.23828125 C-121.65446777 110.32206055 -121.10581055 111.40583984 -120.54052734 112.52246094 C-119.61330278 114.31680398 -118.66002698 116.09847537 -117.65869141 117.85253906 C-115.03302726 122.5392084 -114.5465746 125.31447011 -116.00390625 130.49609375 C-117.11318752 133.23965964 -118.40971966 135.86102241 -119.75390625 138.49609375 C-123.1522712 145.36709657 -125.68812234 152.15675729 -127.80078125 159.51953125 C-129.19156828 162.96037449 -129.88183483 163.59371281 -133.00390625 165.49609375 C-135.75085811 166.59675158 -138.55650932 167.47066943 -141.3828125 168.34375 C-142.19129135 168.60111435 -142.9997702 168.8584787 -143.83274841 169.12364197 C-146.40836128 169.94269099 -148.98705024 170.75141723 -151.56640625 171.55859375 C-154.14896498 172.37040617 -156.73072773 173.18449887 -159.31077576 174.0042572 C-160.91409911 174.51335078 -162.51892843 175.01773106 -164.12538147 175.51686096 C-167.43722047 176.56560349 -170.09434343 177.5563852 -173.00390625 179.49609375 C-174.21447763 183.1278079 -174.18514013 186.4865701 -174.20703125 190.26953125 C-174.21273132 191.03028961 -174.2184314 191.79104797 -174.2243042 192.57485962 C-174.23374373 194.18368137 -174.24028403 195.79252237 -174.24414062 197.40136719 C-174.25384326 199.8551629 -174.28487405 202.30811964 -174.31640625 204.76171875 C-174.3229371 206.32681796 -174.32818725 207.89192314 -174.33203125 209.45703125 C-174.34437805 210.18739594 -174.35672485 210.91776062 -174.3694458 211.67025757 C-174.35004905 216.13417836 -174.04020965 219.13952889 -171.00390625 222.49609375 C-168.29095225 223.74186826 -165.84179974 224.67687083 -163.01171875 225.5390625 C-161.83728714 225.92086418 -161.83728714 225.92086418 -160.63912964 226.31037903 C-158.14085241 227.11860677 -155.63549759 227.90157769 -153.12890625 228.68359375 C-150.63152185 229.48193794 -148.13578678 230.28529156 -145.6401062 231.08894348 C-144.08885499 231.58634506 -142.53627196 232.07961764 -140.98220825 232.56816101 C-138.98487748 233.19758243 -136.99439516 233.84544769 -135.00390625 234.49609375 C-134.04967773 234.79273926 -133.09544922 235.08938477 -132.11230469 235.39501953 C-129.40009317 236.81142457 -128.99025641 237.89405436 -128.01171875 240.7578125 C-127.70234375 241.62269287 -127.39296875 242.48757324 -127.07421875 243.37866211 C-126.76226562 244.30428955 -126.4503125 245.22991699 -126.12890625 246.18359375 C-125.44894153 248.09681178 -124.76399956 250.0082678 -124.07421875 251.91796875 C-123.73293945 252.86349609 -123.39166016 253.80902344 -123.04003906 254.78320312 C-121.11960178 259.81145455 -118.69581524 264.57603125 -116.25390625 269.3671875 C-114.93643991 272.66497043 -114.74943392 274.98119474 -115.00390625 278.49609375 C-108.09766826 276.44733814 -101.8381513 273.59848244 -95.44140625 270.30859375 C-94.52810547 269.84517578 -93.61480469 269.38175781 -92.67382812 268.90429688 C-90.44764603 267.77372272 -88.22449328 266.63760676 -86.00390625 265.49609375 C-87.34800708 261.89803922 -88.98974454 258.53155896 -90.77075195 255.13085938 C-104.90202673 227.9703051 -108.95419558 196.08010378 -100.00390625 166.49609375 C-94.20751199 148.44237838 -85.40696212 132.94420191 -72.00390625 119.49609375 C-71.16472656 118.65046875 -70.32554687 117.80484375 -69.4609375 116.93359375 C-46.86002824 94.51234195 -17.32970493 84.09115316 14.19580078 84.19335938 C45.58944399 84.74529059 74.40965432 97.66232133 96.49121094 119.90917969 C118.01086 142.60186607 128.71108597 173.65194839 127.97460938 204.67919922 C126.53631274 237.73966852 111.89297075 266.7657915 87.69580078 289.02099609 C81.12698897 294.72176613 73.6503975 299.40193128 65.99609375 303.49609375 C69.55792614 304.76561729 71.50909486 304.22576385 74.9855957 302.86889648 C75.97795731 302.48777206 76.97031891 302.10664764 77.99275208 301.713974 C79.59735542 301.07825218 79.59735542 301.07825218 81.234375 300.4296875 C82.90381416 299.78302879 82.90381416 299.78302879 84.60697937 299.12330627 C88.1782924 297.73703587 91.74338365 296.33547507 95.30859375 294.93359375 C97.66823308 294.01528176 100.02825529 293.09795294 102.38867188 292.18164062 C106.91479142 290.42274188 111.43527091 288.65042518 115.95166016 286.86669922 C119.61309773 285.42214907 123.28148172 284.00774872 126.97412109 282.64501953 C127.68658493 282.37689957 128.39904877 282.1087796 129.13310242 281.83253479 C130.93675458 281.15560423 132.74584113 280.49319952 134.55541992 279.83227539 C137.14342138 278.75026741 137.14342138 278.75026741 137.8190918 276.4597168 C137.90670776 275.48772339 137.90670776 275.48772339 137.99609375 274.49609375 C140.4509927 267.68572893 143.47406216 261.08741239 146.42382812 254.48071289 C148.57118871 249.62202094 150.36455318 244.7300937 151.87890625 239.6328125 C154.54034674 234.54257491 161.11958579 233.30524029 166.25390625 231.68359375 C167.86462767 231.16029271 169.47530341 230.63685102 171.0859375 230.11328125 C173.61086461 229.300695 176.13670896 228.4911096 178.66357422 227.68457031 C181.11291795 226.90028598 183.55848787 226.10501787 186.00390625 225.30859375 C186.76019318 225.07100342 187.5164801 224.83341309 188.29568481 224.58862305 C193.46589503 223.12822241 193.46589503 223.12822241 196.99609375 219.49609375 C197.30667913 216.60173829 197.44027158 213.92698393 197.4296875 211.03125 C197.43492935 210.20153183 197.4401712 209.37181366 197.4455719 208.51695251 C197.45199321 206.76269652 197.45065365 205.00839747 197.44213867 203.25415039 C197.43363513 200.57164675 197.46237566 197.8912772 197.49414062 195.20898438 C197.49575292 193.50390689 197.49517456 191.79882563 197.4921875 190.09375 C197.50903847 188.89202904 197.50903847 188.89202904 197.52622986 187.66603088 C197.48477437 184.34814578 197.30448458 181.98543908 195.51611328 179.14770508 C191.94098514 176.80457953 188.2569482 175.68585378 184.1796875 174.47265625 C182.42885892 173.9211362 180.67821327 173.36903517 178.92773438 172.81640625 C176.17609679 171.96339122 173.42257755 171.11775945 170.6652832 170.28320312 C167.99680985 169.47026234 165.33834377 168.62955875 162.6796875 167.78515625 C161.85464218 167.54431305 161.02959686 167.30346985 160.17955017 167.05532837 C156.11211412 165.74712162 154.43183353 165.16220857 152.02246094 161.47900391 C151.68375977 160.49464355 151.34505859 159.5102832 150.99609375 158.49609375 C150.63128906 157.5009375 150.26648438 156.50578125 149.890625 155.48046875 C149.53355469 154.413125 149.17648437 153.34578125 148.80859375 152.24609375 C147.34715109 147.9794051 145.77863049 143.94600447 143.7890625 139.8984375 C143.41096436 139.1156543 143.03286621 138.33287109 142.64331055 137.52636719 C141.89476374 135.99773233 141.12236248 134.48048409 140.32348633 132.97753906 C138.37800596 128.96580871 137.6237847 126.39785567 138.9765625 122.06640625 C139.60990525 120.52598223 140.2852404 119.00231973 140.99609375 117.49609375 C141.35977051 116.70726807 141.72344727 115.91844238 142.09814453 115.10571289 C143.29244661 112.6079682 144.5418148 110.14530306 145.80859375 107.68359375 C146.2471167 106.81210693 146.68563965 105.94062012 147.13745117 105.04272461 C149.0607218 101.22837347 151.00736797 97.43711287 153.08984375 93.70703125 C153.65703125 92.66804688 154.22421875 91.6290625 154.80859375 90.55859375 C155.31003906 89.68332031 155.81148438 88.80804688 156.328125 87.90625 C157.29172956 85.46384338 157.29172956 85.46384338 155.88476562 83.2199707 C153.6723827 80.02923178 151.15129944 77.27133066 148.4453125 74.50390625 C147.90888626 73.95370819 147.37246002 73.40351013 146.81977844 72.8366394 C145.68882292 71.68251516 144.5549088 70.53128347 143.41821289 69.3828125 C141.68338678 67.62088355 139.97400207 65.8364553 138.26367188 64.05078125 C137.15904815 62.92951376 136.05297621 61.80967075 134.9453125 60.69140625 C134.43884689 60.15508575 133.93238129 59.61876526 133.41056824 59.06619263 C130.96700308 56.65215991 129.60409718 55.50942648 126.11254883 55.43286133 C122.26430902 56.74575474 118.77369128 58.41535562 115.18359375 60.3125 C113.68108448 61.08416917 112.17847732 61.85564778 110.67578125 62.62695312 C108.33023738 63.84324301 105.98682736 65.06343964 103.64550781 66.2878418 C101.37173469 67.47311158 99.09071914 68.64341313 96.80859375 69.8125 C95.76771606 70.36557579 95.76771606 70.36557579 94.70581055 70.92982483 C90.64350637 73.00204938 87.66352563 74.06853015 82.99609375 73.49609375 C80.82470703 72.76513672 80.82470703 72.76513672 78.81640625 71.73828125 C78.0598877 71.36348633 77.30336914 70.98869141 76.52392578 70.60253906 C75.73099121 70.19616211 74.93805664 69.78978516 74.12109375 69.37109375 C66.92974843 65.74966691 66.92974843 65.74966691 59.37109375 63.01953125 C58.29384033 62.68912842 58.29384033 62.68912842 57.19482422 62.35205078 C55.24638973 61.78270602 53.28161051 61.27016996 51.31640625 60.76171875 C47.67663478 59.01185822 46.78899881 56.36797748 45.34375 52.7109375 C44.53170987 50.31578551 43.75035954 47.91006255 42.99609375 45.49609375 C42.60131836 44.29065918 42.20654297 43.08522461 41.79980469 41.84326172 C40.19877256 36.90554204 38.66149416 31.9489579 37.12695312 26.99023438 C36.74990234 25.79205078 36.37285156 24.59386719 35.984375 23.359375 C35.64962158 22.27954346 35.31486816 21.19971191 34.9699707 20.0871582 C34.15645676 17.38104557 34.15645676 17.38104557 31.99609375 15.49609375 C28.91084436 15.32055956 25.91645173 15.26486578 22.83203125 15.30078125 C21.9248233 15.30361115 21.01761536 15.30644104 20.08291626 15.30935669 C17.17884252 15.32057222 14.27507463 15.34567912 11.37109375 15.37109375 C9.40495236 15.38112178 7.43880615 15.39024794 5.47265625 15.3984375 C0.64701716 15.42051603 -4.17839265 15.4550551 -9.00390625 15.49609375 Z M-54.00390625 121.49609375 C-54.72191406 122.05296875 -55.43992188 122.60984375 -56.1796875 123.18359375 C-75.79759945 139.19111392 -87.87114502 165.09787743 -90.81640625 189.93359375 C-90.9022793 191.45328651 -90.96482367 192.97447855 -91.00390625 194.49609375 C-91.07931641 195.78 -91.07931641 195.78 -91.15625 197.08984375 C-91.89567996 218.62204427 -85.58168893 242.50278188 -72.00390625 259.49609375 C-71.30007812 259.35171875 -70.59625 259.20734375 -69.87109375 259.05859375 C-59.1175702 257.03704363 -49.20531783 256.47425983 -38.53320312 259.23046875 C-37.84202141 259.40863129 -37.15083969 259.58679382 -36.43871307 259.77035522 C-29.00294725 261.71204733 -21.63957436 263.89385993 -14.28515625 266.12109375 C-12.84748954 266.55432116 -11.40978525 266.98742387 -9.9720459 267.42041016 C-6.99323888 268.31859994 -4.01537231 269.21983004 -1.03808594 270.12304688 C2.75634004 271.2736425 6.55377183 272.41396136 10.35204315 273.55178833 C13.30825355 274.4390554 16.26242783 275.33295539 19.21607971 276.22869873 C20.61546757 276.65198483 22.01555043 277.07298103 23.41636658 277.49151611 C43.36795444 283.46091961 43.36795444 283.46091961 50.49609375 292.37109375 C51.97283885 293.7392638 51.97283885 293.7392638 54.1484375 293.30859375 C57.78450186 292.27114329 60.8448258 290.56125583 64.05859375 288.62109375 C64.71545166 288.22543213 65.37230957 287.82977051 66.04907227 287.42211914 C72.80546398 283.20867529 78.35416088 278.07125818 83.99609375 272.49609375 C84.723125 271.84125 85.45015625 271.18640625 86.19921875 270.51171875 C103.67334236 254.41351038 113.03778614 228.43841715 114.25 205.16796875 C115.23951024 176.44209548 105.00111465 150.01399028 85.46142578 129.03564453 C78.13953201 121.34289842 70.23971014 115.70252208 60.99609375 110.49609375 C60.03960937 109.94953125 59.083125 109.40296875 58.09765625 108.83984375 C21.51701338 89.19653963 -22.16529883 96.59720921 -54.00390625 121.49609375 Z M189.03125 272.94921875 C188.10025482 273.31671234 187.16925964 273.68420593 186.21005249 274.06283569 C183.15256381 275.2737625 180.10600432 276.51005038 177.05859375 277.74609375 C174.902608 278.60414908 172.74577033 279.46006658 170.58813477 280.31396484 C166.05118652 282.11052271 161.51744555 283.91486748 156.98535156 285.72363281 C146.60918827 289.85282226 136.18187157 293.84908902 125.75460815 297.8470459 C122.53922397 299.0805706 119.32519921 300.31756955 116.11157227 301.55566406 C110.07691772 303.87923132 104.03743484 306.18997583 97.99609375 308.49609375 C96.91967621 308.90807007 95.84325867 309.32004639 94.73422241 309.74450684 C91.48230636 310.98718268 88.22786912 312.2230208 84.97265625 313.45703125 C83.98974106 313.83340729 83.00682587 314.20978333 81.99412537 314.5975647 C73.63611778 317.75146326 65.35398873 320.10632289 56.3984375 320.7578125 C52.20346482 321.66808786 51.1908775 322.94621386 48.62109375 326.30859375 C43.58062578 332.32963057 37.90339977 335.685088 29.99609375 336.49609375 C23.76419645 336.73995993 18.32117547 335.91281788 12.2578125 334.52734375 C10.36537521 334.11653818 8.472792 333.70640438 6.58007812 333.296875 C3.64773492 332.6531365 0.71701738 332.00365403 -2.21118164 331.34130859 C-22.88976978 326.69139407 -40.99096914 325.66834486 -61.25390625 332.609375 C-64.67789521 333.71341689 -67.42881271 333.83336673 -71.00390625 333.49609375 C-72.94140625 332.37109375 -72.94140625 332.37109375 -74.00390625 330.49609375 C-74.64387631 325.37633327 -74.64387631 325.37633327 -72.890625 322.96484375 C-61.54555699 314.13307238 -38.75516805 312.21359265 -25.00390625 313.49609375 C-12.01169684 315.16105651 0.82441306 317.68128004 13.51342773 320.9206543 C20.50061995 322.63434168 27.73591163 324.12618481 34.37109375 320.80859375 C39.08865343 316.9117791 39.08865343 316.9117791 41.37890625 311.421875 C41.66089259 305.88554318 40.66175063 301.70282819 36.99609375 297.49609375 C29.58424197 293.06215676 21.26875904 290.97104811 13.04296875 288.546875 C11.49438324 288.08478068 9.94598527 287.62205745 8.39776611 287.15873718 C4.34397822 285.9475466 0.28757765 284.74534647 -3.76940918 283.54492188 C-7.08397166 282.56258802 -10.39666791 281.57405035 -13.70927811 280.58515644 C-20.55460875 278.54167529 -27.40115815 276.50226769 -34.25097656 274.47387695 C-35.46150696 274.11509964 -36.67203735 273.75632233 -37.91925049 273.38667297 C-42.87898411 271.954735 -47.11402197 271.25488405 -52.31640625 271.12109375 C-53.59128906 271.07210938 -54.86617188 271.023125 -56.1796875 270.97265625 C-67.57539639 271.60141109 -78.69957181 277.55171491 -88.7572937 282.51470947 C-101.21487258 288.63086496 -113.49875418 293.22786803 -127.00390625 296.49609375 C-131.95390625 297.81609375 -136.90390625 299.13609375 -142.00390625 300.49609375 C-142.00390625 329.53609375 -142.00390625 358.57609375 -142.00390625 388.49609375 C-132.43390625 388.49609375 -122.86390625 388.49609375 -113.00390625 388.49609375 C-79.23856664 388.93539157 -46.85753602 392.2973034 -13.80810547 399.15966797 C14.31267931 404.98207391 36.99563627 402.62247635 62.99609375 390.49609375 C63.67881348 390.1815625 64.3615332 389.86703125 65.06494141 389.54296875 C84.19789013 380.64348435 101.76369882 368.81758618 119.34375 357.23876953 C123.11119713 354.7634347 126.89584059 352.31519844 130.68359375 349.87109375 C136.79455145 345.92316397 142.89733478 341.96284178 148.99609375 337.99609375 C155.22097394 333.9477784 161.44903799 329.90449328 167.68359375 325.87109375 C168.3688916 325.42725342 169.05418945 324.98341309 169.76025391 324.52612305 C173.31607467 322.22428535 176.87689312 319.9307018 180.4453125 317.6484375 C184.64671956 314.95784038 188.82965321 312.24051478 192.99609375 309.49609375 C194.00414062 308.83222656 195.0121875 308.16835938 196.05078125 307.484375 C203.44429539 302.37320653 213.88625294 294.71577537 217.99609375 286.49609375 C218.50499811 280.38924146 218.07363985 277.36649603 213.99609375 272.49609375 C210.05918341 268.94291723 207.05095456 269.02819747 201.91964722 269.18005371 C197.28756102 269.68078842 193.31339796 271.17526068 189.03125 272.94921875 Z M-198.71684551 286.7115469 C-200.41964422 289.07252645 -200.37867642 290.53755291 -200.37812805 293.43702698 C-200.38514236 294.45637329 -200.39215668 295.4757196 -200.39938354 296.5259552 C-200.39173981 297.64346664 -200.38409607 298.76097809 -200.3762207 299.91235352 C-200.37987137 301.08976105 -200.38352203 302.26716858 -200.38728333 303.48025513 C-200.39400609 306.70958283 -200.3872672 309.93853546 -200.3739512 313.16783261 C-200.36264193 316.54482654 -200.36674373 319.92180544 -200.36869812 323.29881287 C-200.36958114 328.9690344 -200.35849805 334.63913639 -200.34008789 340.30932617 C-200.31890988 346.86966022 -200.31541247 353.42981924 -200.32164985 359.99018055 C-200.32733923 366.29652127 -200.32170356 372.6028002 -200.3104763 378.909132 C-200.30582568 381.59530718 -200.30495844 384.28144464 -200.30706215 386.96762276 C-200.3074313 390.71492817 -200.29485496 394.46196351 -200.27856445 398.20922852 C-200.28104187 399.32876419 -200.28351929 400.44829987 -200.28607178 401.60176086 C-200.27898697 402.61828735 -200.27190216 403.63481384 -200.26460266 404.68214417 C-200.26254979 405.56869973 -200.26049692 406.4552553 -200.25838184 407.36867619 C-200.20042319 409.71165568 -200.20042319 409.71165568 -198.00390625 411.49609375 C-195.01443186 411.70841437 -192.11996759 411.80005093 -189.12890625 411.796875 C-188.2486377 411.80116013 -187.36836914 411.80544525 -186.46142578 411.80986023 C-184.59864157 411.81560816 -182.73583491 411.81610039 -180.87304688 411.81176758 C-178.01523784 411.80860628 -175.15846228 411.83206513 -172.30078125 411.85742188 C-170.4934909 411.8596946 -168.68619774 411.86039849 -166.87890625 411.859375 C-165.59137451 411.87318962 -165.59137451 411.87318962 -164.27783203 411.88728333 C-161.62289141 411.90177184 -161.62289141 411.90177184 -158.00390625 411.49609375 C-155.83785061 408.24701028 -155.75198206 407.35278881 -155.74320984 403.59985352 C-155.73258263 402.08562302 -155.73258263 402.08562302 -155.72174072 400.540802 C-155.72421814 399.43421234 -155.72669556 398.32762268 -155.72924805 397.1875 C-155.72413712 396.02145233 -155.71902618 394.85540466 -155.71376038 393.65402222 C-155.69982814 389.7888276 -155.70082375 385.92381053 -155.703125 382.05859375 C-155.70022167 380.05635703 -155.69731408 378.05412024 -155.69371825 376.05188465 C-155.68262117 369.75625125 -155.68218704 363.46067751 -155.68823242 357.16503906 C-155.69427594 350.66717385 -155.68195224 344.16952496 -155.66066235 337.67169666 C-155.64306002 332.09455133 -155.63704274 326.51747495 -155.6403001 320.94030285 C-155.64211502 317.60849908 -155.63814874 314.27688447 -155.62558556 310.94509888 C-155.61330063 307.23145694 -155.61996514 303.51832085 -155.6315918 299.8046875 C-155.62394806 298.69809784 -155.61630432 297.59150818 -155.60842896 296.4513855 C-155.61895042 294.937155 -155.61895042 294.937155 -155.62968445 293.39233398 C-155.62943284 292.07494484 -155.62943284 292.07494484 -155.62917614 290.73094177 C-155.84333381 288.44095869 -155.84333381 288.44095869 -157.29096699 286.71434021 C-160.30206615 284.57283935 -163.94037819 285.07081763 -167.50390625 285.09765625 C-168.75204102 285.09335098 -168.75204102 285.09335098 -170.02539062 285.08895874 C-171.78386109 285.08691813 -173.54235426 285.09244782 -175.30078125 285.10498047 C-177.99400538 285.12103473 -180.68572885 285.1051323 -183.37890625 285.0859375 C-185.0872429 285.08791993 -186.79557861 285.09176361 -188.50390625 285.09765625 C-189.31021484 285.09158356 -190.11652344 285.08551086 -190.94726562 285.07925415 C-195.07082814 285.04326367 -195.07082814 285.04326367 -198.71684551 286.7115469 Z " fill="#000000" transform="translate(247.00390625,42.50390625)"/>
<path d="M0 0 C0.72015289 -0.0033284 1.44030579 -0.0066568 2.18228149 -0.01008606 C3.70712647 -0.01515175 5.23198255 -0.0174945 6.75683594 -0.01733398 C9.08547351 -0.01951617 11.41363405 -0.03766321 13.7421875 -0.05664062 C15.22395671 -0.05957552 16.70572818 -0.06155967 18.1875 -0.0625 C18.88241547 -0.06968552 19.57733093 -0.07687103 20.29330444 -0.08427429 C23.91616661 -0.06722927 26.70512173 0.05926454 29.7265625 2.16796875 C31.32527819 5.36540014 30.91077931 8.83855991 30.9296875 12.3515625 C30.93538757 13.16287125 30.94108765 13.97417999 30.94696045 14.81007385 C30.95641236 16.52742202 30.96294519 18.24478834 30.96679688 19.9621582 C30.97651137 22.59162924 31.00753568 25.22032158 31.0390625 27.84960938 C31.04559168 29.51692243 31.05084248 31.18424109 31.0546875 32.8515625 C31.0670343 33.63913437 31.0793811 34.42670624 31.09210205 35.23814392 C31.07000224 40.64388278 31.07000224 40.64388278 29.42089844 43.16040039 C26.47850515 44.91014925 24.04341011 44.57530091 20.7265625 44.16796875 C17.68358513 41.92261202 16.82414173 40.68588929 16.1171875 36.93359375 C16.07078125 35.7734375 16.024375 34.61328125 15.9765625 33.41796875 C15.91984375 32.2475 15.863125 31.07703125 15.8046875 29.87109375 C15.76601563 28.53304687 15.76601563 28.53304687 15.7265625 27.16796875 C14.954263 27.94248886 14.1819635 28.71700897 13.38626099 29.51499939 C6.11971528 36.80178715 -1.14944698 44.08595552 -8.42120171 51.36754513 C-12.15989587 55.1114654 -15.89765104 58.85631332 -19.63330078 62.60327148 C-23.23615434 66.21696353 -26.84142121 69.82823135 -30.44839859 73.43780708 C-31.82642587 74.81768687 -33.20357046 76.19844875 -34.57983017 77.58009148 C-36.50257458 79.51005902 -38.42838917 81.43691081 -40.35498047 83.36303711 C-40.92753571 83.93918762 -41.50009094 84.51533813 -42.08999634 85.10894775 C-47.03004557 90.03604779 -47.03004557 90.03604779 -51.56860352 90.51757812 C-56.18155062 90.08227399 -57.38346768 88.87924161 -60.55078125 85.57421875 C-61.00699356 85.10810181 -61.46320587 84.64198486 -61.9332428 84.16174316 C-63.37650459 82.67951536 -64.79343257 81.17480515 -66.2109375 79.66796875 C-67.18910993 78.65465919 -68.16891315 77.64292117 -69.15039062 76.6328125 C-71.54123728 74.15952285 -73.91425113 71.67141393 -76.2734375 69.16796875 C-79.26269884 70.50633506 -81.2999593 71.96495146 -83.56982422 74.31665039 C-84.5013179 75.27257835 -84.5013179 75.27257835 -85.45162964 76.24781799 C-86.44236984 77.27756996 -86.44236984 77.27756996 -87.453125 78.328125 C-88.87065834 79.77581709 -90.28864101 81.22306933 -91.70703125 82.66992188 C-93.93296799 84.95166683 -96.15479141 87.23705113 -98.36865234 89.53051758 C-100.5106538 91.74509296 -102.66805943 93.94368532 -104.828125 96.140625 C-105.81279251 97.17341331 -105.81279251 97.17341331 -106.81735229 98.22706604 C-109.71835321 101.15966691 -111.55589795 102.95006236 -115.55908203 104.16577148 C-119.16275091 104.16868865 -120.67198107 103.69291176 -123.2734375 101.16796875 C-123.95896984 97.79743475 -124.17629153 96.35493206 -123.2734375 93.16796875 C-121.95198059 91.28453064 -121.95198059 91.28453064 -120.22973633 89.40991211 C-119.59427887 88.71525848 -118.95882141 88.02060486 -118.30410767 87.30490112 C-114.98965841 83.81701124 -111.62983705 80.3817214 -108.22265625 76.984375 C-107.4826387 76.24340073 -106.74262115 75.50242645 -105.98017883 74.73899841 C-104.4309659 73.18911016 -102.88051023 71.64046317 -101.32885742 70.09301758 C-98.94658245 67.71614626 -96.56975253 65.33392229 -94.19335938 62.95117188 C-92.6826126 61.4410851 -91.17155609 59.93130813 -89.66015625 58.421875 C-88.94872971 57.70842422 -88.23730316 56.99497345 -87.50431824 56.25990295 C-86.51737724 55.2776902 -86.51737724 55.2776902 -85.51049805 54.27563477 C-84.93204636 53.69797867 -84.35359467 53.12032257 -83.75761414 52.52516174 C-81.73382183 50.67452168 -80.3587755 50.18422361 -77.6484375 49.66796875 C-72.41443663 50.44337629 -69.94586848 53.5127523 -66.2734375 57.16796875 C-65.70367187 57.73080566 -65.13390625 58.29364258 -64.546875 58.87353516 C-60.42809516 62.94464393 -56.34263428 67.04733549 -52.2734375 71.16796875 C-48.42034984 69.59273129 -45.82599836 66.99049431 -42.95410156 64.07568359 C-42.17781654 63.29983665 -42.17781654 63.29983665 -41.385849 62.50831604 C-39.68213461 60.80321204 -37.98560772 59.09114107 -36.2890625 57.37890625 C-35.10694343 56.19305575 -33.92438105 55.00764701 -32.74139404 53.82266235 C-29.63315022 50.70679237 -26.53096013 47.58496241 -23.42999268 44.46185303 C-20.26295248 41.27433256 -17.09022363 38.09248555 -13.91796875 34.91015625 C-7.69754347 28.66829899 -1.48350213 22.4201339 4.7265625 16.16796875 C3.83453125 16.1421875 2.9425 16.11640625 2.0234375 16.08984375 C0.26773438 16.00476563 0.26773438 16.00476563 -1.5234375 15.91796875 C-2.68359375 15.8715625 -3.84375 15.82515625 -5.0390625 15.77734375 C-8.79135804 15.07038952 -10.02808077 14.21094612 -12.2734375 11.16796875 C-13.0097763 5.17206711 -13.0097763 5.17206711 -10.8984375 2.29296875 C-7.33733067 -0.1724129 -4.19464304 0.00667831 0 0 Z " fill="#000000" transform="translate(304.2734375,187.83203125)"/>
</svg>
