<?xml version="1.0" encoding="UTF-8"?>
<svg version="1.1" xmlns="http://www.w3.org/2000/svg" width="512" height="512">
<path d="M0 0 C1.17033279 -0.00852997 2.34066559 -0.01705994 3.54646301 -0.02584839 C4.81671326 -0.02494202 6.0869635 -0.02403564 7.39570618 -0.02310181 C8.75804002 -0.02909167 10.12037049 -0.03589827 11.48269653 -0.04345703 C15.17306303 -0.0610817 18.8633367 -0.06581103 22.55374122 -0.0670886 C24.86382806 -0.06851323 27.17389153 -0.07278881 29.48397255 -0.07808304 C37.55612808 -0.09657451 45.62821767 -0.10475512 53.70039368 -0.10317993 C61.20305619 -0.10198008 68.70543031 -0.12305372 76.20801991 -0.15466726 C82.66602249 -0.18090111 89.12393133 -0.1915442 95.58198673 -0.19026911 C99.43158892 -0.18976139 103.28093491 -0.19533835 107.13048363 -0.21662521 C110.75612389 -0.23612702 114.38126678 -0.23605173 118.00692558 -0.22159195 C119.95497449 -0.21853581 121.90302409 -0.23509807 123.85099792 -0.25247192 C136.72088594 -0.16131836 146.37164754 3.77405702 156.03755188 12.26742554 C163.48556861 20.1852615 169.3472185 30.22976318 169.23286438 41.32211304 C169.22641907 42.43070679 169.21997375 43.53930054 169.21333313 44.68148804 C169.19657532 45.82359741 169.1798175 46.96570679 169.16255188 48.14242554 C169.15352844 49.30773804 169.144505 50.47305054 169.13520813 51.67367554 C169.1117262 54.53847131 169.07888329 57.40284088 169.03755188 60.26742554 C169.76385111 60.26373837 170.49015034 60.26005119 171.23845863 60.25625229 C188.91566098 60.16789256 206.59280719 60.10171173 224.27018166 60.06017685 C232.81885843 60.03955669 241.36738773 60.01144662 249.91596985 59.96566772 C257.367428 59.92578313 264.81877935 59.89998874 272.27034128 59.89107156 C276.21547885 59.88585952 280.1603109 59.87362102 284.10535049 59.84450531 C287.82031416 59.81731035 291.53484707 59.80898863 295.24990082 59.81499481 C297.25983174 59.81337351 299.26971598 59.79187207 301.27952576 59.76974487 C312.62276437 59.82158991 312.62276437 59.82158991 317.03755188 64.26742554 C319.49627174 68.46015516 320.41307462 71.51934383 320.41786861 76.36297894 C320.42630856 77.56991301 320.4347485 78.77684709 320.44344419 80.02035493 C320.43743415 81.33775172 320.4314241 82.65514852 320.42523193 84.01246643 C320.42940614 85.43286555 320.43488413 86.85326134 320.44155174 88.27365094 C320.45601449 92.17246758 320.45175904 96.07107297 320.44438493 99.9699012 C320.43965744 104.17660964 320.45215959 108.38327209 320.46240234 112.58996582 C320.47960556 120.83058285 320.48042697 129.07112368 320.47518944 137.31175401 C320.47114832 144.01156308 320.47259062 150.71134962 320.4779377 157.41115761 C320.47868612 158.36466834 320.47943454 159.31817908 320.48020564 160.30058408 C320.48173713 162.23767684 320.48327548 164.17476959 320.48482061 166.11186234 C320.49855187 184.28233718 320.4931042 202.45276897 320.4816354 220.62324283 C320.47170861 237.2376793 320.48463299 253.85200432 320.50856959 270.46642359 C320.53296916 287.53099552 320.54256596 304.59551556 320.53591686 321.66010457 C320.53242575 331.23850037 320.53464929 340.81681051 320.55216789 350.3951931 C320.56690084 358.55170083 320.56751134 366.70806264 320.55009698 374.86456754 C320.54159243 379.02393567 320.53942383 383.18304324 320.55474854 387.34239769 C320.56862272 391.15539219 320.56379785 394.96790361 320.5445093 398.78087036 C320.53898928 400.80251406 320.55299829 402.82418253 320.5678634 404.84577912 C320.46340155 417.83098915 316.61543278 427.50534161 308.03755188 437.26742554 C299.46863517 445.32788995 289.3138957 450.59548731 277.42711353 450.52469444 C276.67722486 450.52820052 275.92733619 450.53170659 275.15472361 450.53531891 C272.63974699 450.54462926 270.12500211 450.53971055 267.61001587 450.53485107 C265.78951348 450.53858753 263.96901269 450.54318903 262.14851445 450.54858172 C257.1437933 450.56082792 252.13913892 450.56054934 247.13440621 450.55819297 C241.73751233 450.55778521 236.34063998 450.56882011 230.9437561 450.57830811 C220.3690002 450.59492834 209.7942666 450.60041813 199.21949873 450.60153286 C190.62371764 450.60248292 182.02794391 450.60659112 173.43216515 450.61293411 C149.06414504 450.6305499 124.69614256 450.63977254 100.32811604 450.63827316 C99.01414637 450.63819325 97.7001767 450.63811334 96.34638977 450.63803101 C95.03081647 450.63794924 93.71524316 450.63786748 92.359804 450.63778324 C71.04097561 450.63697042 49.72224025 450.65610643 28.40342925 450.68430774 C6.51597095 450.71303289 -15.37145288 450.72684821 -37.2589305 450.72512019 C-49.5480544 450.72445612 -61.83710424 450.72995557 -74.12621117 450.75147629 C-84.59019362 450.76968326 -95.05406844 450.7740394 -105.51805987 450.76045744 C-110.85611706 450.7539252 -116.19396774 450.75381999 -121.53200531 450.77116394 C-126.42190213 450.78688826 -131.31142858 450.78403737 -136.20131633 450.76659568 C-137.96713693 450.76352438 -139.73298513 450.76716305 -141.49877318 450.77831583 C-156.42237448 450.86630572 -167.46778468 448.367713 -178.96244812 438.26742554 C-186.46134744 430.29549732 -192.20470134 420.28572034 -192.21971703 409.14228821 C-192.22616592 407.92878724 -192.23261481 406.71528627 -192.23925912 405.46501255 C-192.23631717 404.12693299 -192.23318176 402.78885385 -192.22987366 401.45077515 C-192.23361154 400.0226896 -192.23821362 398.5946061 -192.2436043 397.16652584 C-192.25583215 393.24669756 -192.25557411 389.32695464 -192.25321555 385.40711164 C-192.25280734 381.17801061 -192.26384676 376.94893692 -192.27333069 372.71984863 C-192.28993933 364.43680967 -192.29544013 356.15379917 -192.29655544 347.87074494 C-192.29750577 341.13943212 -192.30161526 334.4081287 -192.3079567 327.67681885 C-192.32556696 308.59587212 -192.33479564 289.51494789 -192.33329575 270.43399298 C-192.33317588 268.89119542 -192.33317588 268.89119542 -192.33305359 267.31723022 C-192.33297183 266.28744439 -192.33289007 265.25765855 -192.33280583 264.19666708 C-192.33199248 247.49802536 -192.35114299 230.79947374 -192.37933032 214.10085809 C-192.40803894 196.95834461 -192.42187181 179.81587512 -192.42014277 162.67333698 C-192.41947828 153.04758714 -192.42499671 143.42193182 -192.44649887 133.79620361 C-192.46468385 125.6029627 -192.46907997 117.40985918 -192.45548002 109.21660686 C-192.44893741 105.03557549 -192.44887968 100.85480791 -192.46618652 96.67380142 C-192.48186498 92.84689028 -192.47910771 89.02045325 -192.46161826 85.19355404 C-192.45853682 83.80870774 -192.46222372 82.4238265 -192.47333841 81.03902137 C-192.57135213 67.96190659 -192.57135213 67.96190659 -187.96244812 63.26742554 C-184.27996926 60.39575987 -181.58846066 59.89441224 -176.9703064 59.90666199 C-175.7686232 59.90253799 -174.56694 59.898414 -173.32884216 59.89416504 C-171.36409943 59.91034378 -171.36409943 59.91034378 -169.35966492 59.92684937 C-167.95993061 59.92769601 -166.56019496 59.92721976 -165.16046143 59.92552185 C-161.3673729 59.92466193 -157.57456961 59.94228706 -153.78154731 59.96324372 C-149.81507298 59.98201105 -145.84859195 59.98376101 -141.88208008 59.98731995 C-134.37399854 59.99664025 -126.86604821 60.02125381 -119.35802442 60.05136842 C-110.80911746 60.08491289 -102.2602042 60.10139855 -93.7112478 60.11645472 C-76.12823871 60.14780341 -58.54535729 60.2005636 -40.96244812 60.26742554 C-40.98339539 59.5677063 -41.00434265 58.86798706 -41.02592468 58.14706421 C-41.11007746 54.9165029 -41.16141883 51.68617328 -41.21244812 48.45492554 C-41.26272156 46.80460327 -41.26272156 46.80460327 -41.31401062 45.12094116 C-41.46429668 32.38419757 -37.34055179 22.80215237 -28.96244812 13.26742554 C-21.05913175 5.83306686 -11.0577088 0.03660117 0 0 Z M-5.77494812 34.70492554 C-12.69179034 42.80751214 -10.96244812 48.99629855 -10.96244812 60.26742554 C38.53755188 60.26742554 88.03755188 60.26742554 139.03755188 60.26742554 C139.95279435 46.84411302 139.95279435 46.84411302 134.60005188 35.45492554 C129.45424849 31.06216654 125.55570906 30.1464621 118.92771912 30.13371277 C117.92126343 30.12944778 116.91480774 30.1251828 115.87785339 30.12078857 C114.78473846 30.12124176 113.69162354 30.12169495 112.56538391 30.12216187 C111.40546936 30.11880325 110.24555481 30.11544464 109.05049133 30.11198425 C105.21543813 30.10248394 101.38042862 30.10053163 97.54536438 30.09945679 C95.55285853 30.09705586 93.56035266 30.09465319 91.56784713 30.09199637 C85.30367647 30.08386221 79.03952018 30.08141119 72.77534485 30.0821228 C66.32414602 30.08272339 59.87303085 30.07217295 53.42185318 30.05637914 C47.87348957 30.04328212 42.32515323 30.03793981 36.77677429 30.03857821 C33.46726415 30.03883256 30.15784497 30.03509017 26.84834671 30.02540016 C23.15499688 30.01559842 19.46186224 30.01847919 15.76850891 30.02450562 C14.67944244 30.01888611 13.59037598 30.0132666 12.4683075 30.00747681 C2.6087098 30.011368 2.6087098 30.011368 -5.77494812 34.70492554 Z M-154.96244812 90.26742554 C-153.27021755 97.90711767 -153.27021755 97.90711767 -151.08517456 105.3205719 C-150.5365551 106.99212593 -150.5365551 106.99212593 -149.97685242 108.69744873 C-149.5804657 109.88996246 -149.18407898 111.0824762 -148.77568054 112.31112671 C-148.34966643 113.60308324 -147.92400179 114.89515504 -147.49865723 116.18733215 C-146.35010059 119.67206711 -145.19570287 123.15483777 -144.03943801 126.63702178 C-143.31594931 128.81632099 -142.5935084 130.99596487 -141.87137794 133.17571449 C-139.60786507 140.00717705 -137.34079549 146.83744339 -135.06848925 153.66598624 C-132.45204428 161.52878382 -129.84744212 169.39537305 -127.25299948 177.26545733 C-125.24122375 183.36568643 -123.21905402 189.462407 -121.18899995 195.5565775 C-119.97900642 199.18969552 -118.77339098 202.82412563 -117.57858849 206.46227074 C-116.45529328 209.88169503 -115.31911082 213.29656596 -114.17306328 216.70842934 C-113.55786715 218.5506175 -112.95601284 220.39724453 -112.35462952 222.24398804 C-109.32088744 231.87385901 -109.32088744 231.87385901 -101.95138931 238.27242279 C-96.71472396 240.2427845 -91.77921413 240.68747967 -86.2297821 240.60800171 C-84.99886086 240.60865883 -84.99886086 240.60865883 -83.74307251 240.60932922 C-81.06464279 240.60726021 -78.38686051 240.58401976 -75.70854187 240.56039429 C-73.83810772 240.55479159 -71.96766914 240.55052468 -70.097229 240.54753113 C-65.19977943 240.53613535 -60.3026013 240.50671404 -55.40525818 240.47341919 C-50.39766612 240.44260418 -45.39002975 240.42900146 -40.38237 240.41390991 C-30.57561081 240.38183885 -20.76905213 240.33070691 -10.96244812 240.26742554 C-10.9478656 239.65745728 -10.93328308 239.04748901 -10.91825867 238.41903687 C-10.84350037 235.63871489 -10.7469333 232.8595573 -10.64994812 230.07992554 C-10.62738953 229.12021851 -10.60483093 228.16051147 -10.58158875 227.17172241 C-10.23189629 217.98434785 -10.23189629 217.98434785 -6.96244812 214.26742554 C-3.31353313 211.68321024 -0.8355522 210.89170734 3.6164093 210.88647461 C4.72672516 210.87801514 5.83704102 210.86955566 6.98100281 210.86083984 C8.79370163 210.86994888 8.79370163 210.86994888 10.64302063 210.87924194 C11.92319061 210.87398499 13.2033606 210.86872803 14.52232361 210.86331177 C18.02647071 210.84965602 21.5303523 210.85492946 25.03450394 210.86444902 C28.70504207 210.87205471 32.37555776 210.86499749 36.0460968 210.86029053 C42.20963107 210.85483561 48.37305744 210.86201761 54.53657532 210.87631226 C61.65815091 210.89263834 68.77946882 210.88734964 75.90103817 210.87083304 C82.02008485 210.8572106 88.13905405 210.8553022 94.258111 210.86314905 C97.91073898 210.86782142 101.56324592 210.86846248 105.21586609 210.85853958 C109.28809319 210.84824912 113.35987741 210.86251962 117.43208313 210.87924194 C118.64054901 210.87316925 119.84901489 210.86709656 121.09410095 210.86083984 C122.75957474 210.87352905 122.75957474 210.87352905 124.45869446 210.88647461 C125.42100479 210.88760569 126.38331512 210.88873676 127.37478638 210.88990211 C131.45205307 211.46797167 134.11284551 213.21615892 136.80708313 216.27914429 C138.66889595 220.80068971 138.6111269 225.2332315 138.72505188 230.07992554 C138.75921204 231.05896851 138.79337219 232.03801147 138.8285675 233.04672241 C138.91075046 235.45350899 138.97999621 237.85994499 139.03755188 240.26742554 C149.83431352 240.33709633 160.6310212 240.39032339 171.4279623 240.42286205 C176.44203093 240.4384831 181.45594515 240.45965608 186.46992493 240.4937439 C191.31342132 240.52646465 196.15676968 240.54430531 201.00036812 240.55205727 C202.84344371 240.55757801 204.68651169 240.56835848 206.52952385 240.58461571 C209.12148596 240.60655931 211.71284505 240.60938545 214.30488586 240.60800171 C215.05799042 240.61878754 215.81109497 240.62957336 216.58702087 240.64068604 C223.45309359 240.60131288 229.48017819 239.44814788 234.80065918 234.91127014 C238.38200727 229.91074833 239.94283682 223.75119119 241.82783508 217.96591187 C242.28062323 216.60992272 242.73458874 215.25432624 243.18963623 213.89909363 C244.41646761 210.23394131 245.62649446 206.56344201 246.83325982 202.89164186 C248.09996262 199.04629702 249.38132986 195.20584303 250.66088867 191.36476135 C252.80567054 184.91935615 254.94029543 178.47066151 257.06806946 172.0196228 C259.80033772 163.73604282 262.54934169 155.45811861 265.30364704 147.18184376 C267.67212974 140.06446373 270.03293903 132.94454271 272.39251304 125.82420516 C273.15137996 123.53530744 273.91130283 121.24676231 274.67136574 118.95826149 C275.8635321 115.36709263 277.05090694 111.7743735 278.23455238 108.1803875 C278.67000819 106.86044525 279.10698487 105.54100366 279.54557419 104.2220993 C280.14284384 102.42505761 280.73402005 100.62599406 281.32485962 98.826828 C281.65758534 97.81972684 281.99031107 96.81262568 282.33311939 95.77500629 C283.17277797 93.22016668 283.17277797 93.22016668 283.03755188 90.26742554 C138.49755188 90.26742554 -6.04244812 90.26742554 -154.96244812 90.26742554 Z M-161.96244812 171.26742554 C-162.00808135 200.95848141 -162.04347164 230.64953609 -162.06457878 260.34061948 C-162.06708017 263.84657637 -162.06966881 267.3525332 -162.0723114 270.85848999 C-162.07283602 271.55645767 -162.07336064 272.25442536 -162.07390116 272.97354358 C-162.08260182 284.27231368 -162.09836994 295.57106341 -162.11675371 306.86982144 C-162.13546218 318.46491164 -162.14641716 330.05998997 -162.15062511 341.65509456 C-162.15323403 348.16723977 -162.1593724 354.67933878 -162.17390823 361.19146919 C-162.1874776 367.32024134 -162.19167204 373.44894825 -162.18866348 379.57773399 C-162.18921393 381.82753987 -162.19319518 384.07734792 -162.20085907 386.32714081 C-162.21081008 389.39887374 -162.20841629 392.47036036 -162.20295715 395.542099 C-162.21169568 396.87723702 -162.21169568 396.87723702 -162.22061074 398.23934752 C-162.18978114 404.65790968 -161.88935868 410.0440672 -157.52494812 415.07992554 C-151.67690475 420.07215768 -147.29914504 420.3919077 -139.77623177 420.39605999 C-138.70198315 420.39868955 -138.70198315 420.39868955 -137.60603255 420.40137222 C-135.19984491 420.40603404 -132.79371764 420.40356625 -130.38752747 420.40113831 C-128.64753478 420.40300618 -126.90754252 420.40530679 -125.16755092 420.40800363 C-120.38089304 420.41413085 -115.59425259 420.41398695 -110.80759168 420.41280925 C-105.64730385 420.41260548 -100.48702166 420.41812174 -95.32673645 420.42286682 C-85.21507321 420.43117885 -75.10341579 420.43392191 -64.99174942 420.4344792 C-56.77444033 420.43495407 -48.55713316 420.43700738 -40.33982468 420.44017982 C-17.0523871 420.44898769 6.23504587 420.45359896 29.52248512 420.45284935 C30.77833118 420.45280939 32.03417723 420.45276944 33.32807922 420.45272827 C34.58545498 420.45268739 35.84283073 420.45264651 37.13830878 420.45260439 C57.5222278 420.45219782 77.90612835 420.4617698 98.29004203 420.47586664 C119.21015501 420.49022038 140.13025898 420.49713738 161.05037701 420.49627286 C172.79945539 420.49594056 184.5485144 420.49870224 196.29758835 420.50945091 C206.29982087 420.51854271 216.30202526 420.52074203 226.30426012 420.51394149 C231.40885344 420.51066968 236.51339273 420.51064341 241.61798096 420.51929474 C246.28988196 420.52713143 250.96168585 420.52575738 255.6335844 420.51701061 C257.32466582 420.51546937 259.01575439 420.51731516 260.70682739 420.52287068 C263.00455378 420.52991988 265.30193848 420.52464579 267.59965324 420.51631451 C269.51450439 420.51664056 269.51450439 420.51664056 271.46803939 420.5169732 C276.7975199 420.14438467 280.77478616 419.36182249 284.85005188 415.82992554 C290.35109409 409.38584752 290.18411581 403.87472912 290.1578064 395.78260803 C290.15866082 394.82278466 290.15951525 393.86296128 290.16039556 392.87405235 C290.16204352 389.65579256 290.15654014 386.43758482 290.15107727 383.21932983 C290.15079523 380.91320293 290.15095347 378.60707594 290.15151978 376.3009491 C290.15180707 370.0369743 290.1459212 363.77301858 290.13894582 357.50904822 C290.13270109 350.9640562 290.13210759 344.41906376 290.13092041 337.87406921 C290.12833049 326.88759021 290.12191465 315.90111791 290.11299133 304.91464233 C290.1038104 293.599213 290.0967329 282.28378558 290.09248352 270.96835327 C290.0922208 270.27070992 290.09195807 269.57306658 290.09168739 268.85428252 C290.09038234 265.35436303 290.08911863 261.85444353 290.08787549 258.35452402 C290.07751108 229.32548663 290.05982552 200.29645618 290.03755188 171.26742554 C287.97050739 174.36799227 287.02550781 176.97468165 285.87031555 180.50790405 C285.56005684 181.45007027 285.56005684 181.45007027 285.24353027 182.41127014 C284.79526189 183.77416804 284.34903258 185.13773792 283.90460777 186.501894 C283.19787795 188.66977557 282.48496422 190.83553272 281.77029419 193.00080872 C279.73941562 199.15749268 277.71933922 205.31769901 275.70429993 211.47958374 C274.47005634 215.2523689 273.22824508 219.02259798 271.9820652 222.79145622 C271.51155115 224.21963129 271.04391796 225.64875916 270.57938194 227.07888985 C265.42983767 242.93018892 259.79027028 256.28797994 244.78755188 265.01351929 C237.6112403 268.28567272 231.2657549 269.71315398 223.38691711 269.69979858 C222.46876724 269.70999023 221.55061737 269.72018188 220.60464478 269.73068237 C217.60174812 269.76062185 214.59917144 269.77004906 211.59614563 269.77914429 C209.50149491 269.7960051 207.40685422 269.81415722 205.31222534 269.83354187 C199.82309606 269.88089557 194.33400747 269.91079949 188.84474182 269.9369812 C183.23379993 269.96686069 177.62299801 270.01336558 172.01216125 270.05844116 C161.02069824 270.14430777 150.02920629 270.21172693 139.03755188 270.26742554 C139.02296936 270.8773938 139.00838684 271.48736206 138.99336243 272.11581421 C138.91860413 274.89613618 138.82203706 277.67529377 138.72505188 280.45492554 C138.70249329 281.41463257 138.67993469 282.3743396 138.6566925 283.36312866 C138.30700005 292.55050323 138.30700005 292.55050323 135.03755188 296.26742554 C131.38863689 298.85164083 128.91065596 299.64314373 124.45869446 299.64837646 C123.3483786 299.65683594 122.23806274 299.66529541 121.09410095 299.67401123 C119.88563507 299.66793854 118.67716919 299.66186584 117.43208313 299.65560913 C116.15191315 299.66086609 114.87174316 299.66612305 113.55278015 299.67153931 C110.04863305 299.68519505 106.54475146 299.67992161 103.04059982 299.67040205 C99.37006169 299.66279636 95.699546 299.66985359 92.02900696 299.67456055 C85.86547269 299.68001546 79.70204632 299.67283347 73.53852844 299.65853882 C66.41695285 299.64221274 59.29563494 299.64750144 52.17406559 299.66401803 C46.05501891 299.67764048 39.93604971 299.67954888 33.81699276 299.67170203 C30.16436478 299.66702965 26.51185783 299.66638859 22.85923767 299.67631149 C18.78701057 299.68660195 14.71522635 299.67233145 10.64302063 299.65560913 C8.83032181 299.66471817 8.83032181 299.66471817 6.98100281 299.67401123 C5.87068695 299.66555176 4.76037109 299.65709229 3.6164093 299.64837646 C2.1729438 299.64667985 2.1729438 299.64667985 0.70031738 299.64494896 C-3.37694931 299.0668794 -6.03774175 297.31869216 -8.73197937 294.25570679 C-10.59379219 289.73416136 -10.53602314 285.30161958 -10.64994812 280.45492554 C-10.68410828 279.47588257 -10.71826843 278.4968396 -10.75346375 277.48812866 C-10.8356467 275.08134208 -10.90489245 272.67490609 -10.96244812 270.26742554 C-12.69226677 270.26195709 -12.69226677 270.26195709 -14.45703125 270.25637817 C-25.35843485 270.21933591 -36.25955838 270.16146256 -47.16074848 270.0835228 C-52.7643375 270.04411965 -58.36777106 270.01189601 -63.97148132 269.99642944 C-69.38575703 269.98121576 -74.79960513 269.94668652 -80.2136898 269.89911652 C-82.27275551 269.88435126 -84.33188228 269.87638733 -86.39100075 269.87554169 C-102.18917565 269.86253595 -115.10147555 268.55778125 -127.12260437 257.23226929 C-135.96092569 247.86530071 -139.5540717 236.19764124 -143.48197937 224.19711304 C-143.98983852 222.66418944 -144.4983697 221.13148833 -145.00753784 219.59899902 C-146.3342777 215.59985205 -147.65197453 211.59778415 -148.96769714 207.59500122 C-150.31653112 203.49699763 -151.67405276 199.40187456 -153.0308075 195.30648804 C-155.68311379 187.29623342 -158.32585677 179.28286643 -160.96244812 171.26742554 C-161.29244812 171.26742554 -161.62244812 171.26742554 -161.96244812 171.26742554 Z M19.03755188 240.26742554 C19.03755188 250.16742554 19.03755188 260.06742554 19.03755188 270.26742554 C48.73755188 270.26742554 78.43755188 270.26742554 109.03755188 270.26742554 C109.03755188 260.36742554 109.03755188 250.46742554 109.03755188 240.26742554 C79.33755188 240.26742554 49.63755188 240.26742554 19.03755188 240.26742554 Z " fill="#000000" transform="translate(191.9624481201172,30.732574462890625)"/>
</svg>
