<svg width="298" height="439" viewBox="0 0 298 439" fill="none" xmlns="http://www.w3.org/2000/svg">
<g clip-path="url(#clip0_39_66)">
<path d="M39.6531 258.185L43.3841 303.531C43.3841 303.531 43.3841 323.334 42.8101 324.769C42.2361 326.204 41.0881 341.989 41.0881 341.989L45.9671 349.164L57.1601 344.285L55.7251 320.751L56.2991 292.625L57.7341 278.562C57.7341 278.562 60.0301 305.253 60.0301 306.688C60.0301 308.123 60.6041 336.536 60.6041 336.536L60.0301 354.617L66.3441 363.227L74.0931 356.339L70.9361 320.177L73.5191 286.598L75.8151 295.208C75.8151 295.208 75.2411 322.76 75.2411 324.195C75.2411 325.63 76.9631 357.774 76.9631 357.774L82.9901 365.523L102.506 335.675L95.3311 293.486L78.1111 262.777L55.1511 254.741L41.6621 253.019L39.6531 258.185Z" fill="#2A232B"/>
<path d="M94.183 191.601L35.348 181.843L39.653 258.185L43.384 303.531C43.384 303.531 43.384 323.334 42.81 324.769C42.236 326.204 41.088 341.989 41.088 341.989L45.967 349.164L49.698 347.442L46.254 337.684L47.689 268.804L57.447 275.692V279.423V278.275C57.447 278.275 59.743 304.966 59.743 306.401C59.743 307.836 60.317 336.249 60.317 336.249L59.743 354.33L66.057 362.94L69.788 359.783L66.344 346.581L64.909 279.71L73.232 281.145L73.519 286.885L75.815 295.208C75.815 295.208 75.241 322.76 75.241 324.195C75.241 325.63 76.963 357.774 76.963 357.774L82.99 365.523L84.138 363.514L98.488 313.576L94.183 191.601ZM258.347 258.185L254.616 303.531C254.616 303.531 254.616 323.334 255.19 324.769C255.764 326.204 256.912 341.989 256.912 341.989L252.033 349.164L240.84 344.285L242.275 320.751L241.701 292.625L240.266 278.562C240.266 278.562 237.97 305.253 237.97 306.688C237.97 308.123 237.396 336.536 237.396 336.536L237.97 354.617L231.656 363.227L223.907 356.339L227.064 320.177L224.481 286.598L222.185 295.208C222.185 295.208 222.759 322.76 222.759 324.195C222.759 325.63 221.037 357.774 221.037 357.774L215.01 365.523L195.494 335.675L202.669 293.486L219.889 262.777L242.849 254.741L256.338 253.019L258.347 258.185Z" fill="#1B141C"/>
<path d="M195.207 191.601L257.199 168.641L258.06 258.472L254.329 303.818C254.329 303.818 254.329 323.621 254.903 325.056C255.477 326.491 256.625 342.276 256.625 342.276L251.746 349.451L248.015 347.729L251.459 337.971L250.024 269.091L240.266 275.979V279.71V278.562C240.266 278.562 237.97 305.253 237.97 306.688C237.97 308.123 237.396 336.536 237.396 336.536L237.97 354.617L231.656 363.227L227.925 360.07L231.369 346.868L232.804 279.997L224.481 281.432L224.194 287.172L221.898 295.495C221.898 295.495 222.472 323.047 222.472 324.482C222.472 325.917 220.75 358.061 220.75 358.061L214.723 365.81L213.575 363.801L199.225 313.863L195.207 191.601Z" fill="#2A232B"/>
<path d="M349.9 415.461L271.549 395.658L219.889 367.245L215.584 286.311H82.4161L78.1111 367.245L26.4511 395.658L-51.9 415.461L-78.017 472L-86.627 529.4H384.627L376.017 472L349.9 415.461Z" fill="#CA987D"/>
<path d="M82.4161 286.311L78.1111 367.245L26.4511 395.658L-51.8999 415.461L-78.017 472L-86.627 529.4H-44.7249V472L-36.9759 421.201L31.3301 402.833L102.219 379.012L112.264 286.311H82.4161Z" fill="#AB6B48"/>
<path d="M217.019 315.585L215.584 286.311H82.416L80.12 329.648L100.497 348.016L140.964 359.783L181.718 348.016L217.019 315.585Z" fill="#9C5732"/>
<path d="M128.336 381.021L134.076 403.694L153.879 416.896C153.879 416.896 129.484 408.286 128.91 406.564C128.336 404.842 128.336 381.021 128.336 381.021Z" fill="#AB6B48"/>
<path d="M392.089 529.4L368.842 427.802L355.066 417.757L350.761 412.017L300.249 392.501L275.567 346.868L264.661 342.276L243.71 316.446L216.732 307.549L218.454 339.119L214.723 368.106L189.18 394.223L165.933 422.349L158.758 436.699L153.879 427.515L140.964 416.609L108.82 394.223L83.277 368.106L79.546 339.119L81.268 307.549L54.29 316.446L33.339 342.276L22.433 346.868L-2.24899 392.501L-52.761 412.017L-57.066 417.757L-70.842 427.802L-94.089 529.4H392.089Z" fill="#386E77"/>
<path d="M247.154 439.856L204.104 450.762L175.691 451.336L175.404 446.457L179.135 446.17L177.126 439.569L167.942 440.43L167.655 447.031L169.951 446.744V451.336H163.924L169.951 451.91L170.238 468.843L168.229 490.081L172.821 511.606L173.682 525.382L181.144 522.512L180.283 507.875L174.543 488.933L177.126 467.982L176.265 451.91L204.104 453.919L249.45 442.152L295.37 407.138L301.11 391.927L291.926 403.694L247.154 439.856ZM154.74 452.197L147.565 451.623L148.139 446.457L149.861 446.744L153.305 440.43L143.834 433.829L138.094 439.282L141.538 445.883H141.825V451.336L137.52 451.049L62.9 431.246L17.554 399.676L23.007 368.106L31.33 357.2L62.9 410.869L113.699 431.533L71.223 408.86L47.976 373.272L54.29 316.446L33.626 341.989L22.72 346.868L-1.96198 392.214L-52.761 411.73L-57.066 417.47L-70.842 427.515L-94.089 529.4H-64.815L-61.084 488.359L-51.613 436.412L-43.29 443.874L-35.828 483.767L-32.384 529.4V482.906L-39.846 438.995L-46.16 426.654L-42.142 421.775L5.787 404.555L60.03 435.551L136.946 453.345L141.251 453.058L140.964 462.816L144.982 491.229C144.982 491.229 136.372 519.355 136.946 519.642C137.807 520.216 141.825 527.678 142.112 527.104C142.399 526.243 152.157 491.229 152.157 491.229L146.704 461.381L147.565 452.484L154.74 452.197ZM79.546 339.119L81.268 308.123L69.788 322.76L67.779 346.868L83.277 368.393L79.546 339.119ZM220.463 370.689L239.692 350.886L237.683 319.89L216.732 307.549L218.454 339.119L214.723 368.393L189.18 394.51L165.933 422.636L158.758 436.986L177.413 412.591L220.463 370.689ZM168.516 434.977L234.239 420.627L266.383 382.169L275.567 346.868L264.661 341.989L257.773 379.299L233.091 416.896L168.516 434.977ZM330.671 462.816L332.967 524.808L334.402 466.26L347.317 428.663L330.671 462.816Z" fill="#265E68"/>
<path d="M256.338 373.559L259.782 343.424L242.562 325.63L246.58 355.191L217.019 401.398L176.839 426.367L230.221 413.452L256.338 373.559ZM295.37 391.353L277.576 362.366C278.15 364.088 271.549 389.631 271.549 389.631L241.988 425.219L197.503 445.883L245.432 436.986L290.491 400.824L295.37 391.353ZM366.546 431.533L355.927 426.08L349.326 442.152L360.519 468.843L371.712 523.947L383.479 524.521L366.546 431.533ZM344.447 412.878L303.119 399.102L295.944 413.452L272.123 429.524L327.801 431.246L340.716 434.69L351.335 418.618L344.447 412.878ZM105.95 401.972L76.963 372.411L66.344 351.173L62.326 352.895L71.223 386.187L104.515 412.304L145.843 428.376L154.74 439.569L145.269 423.497L105.95 401.972ZM229.647 366.097L181.718 412.304L162.776 436.699L201.234 403.407L229.647 366.097Z" fill="#4D7E86"/>
<path d="M36.783 164.91C36.783 164.91 20.998 156.3 14.684 153.717C14.684 153.717 3.491 169.215 0.0469971 174.381C0.0469971 174.381 8.944 216.57 11.24 224.032L25.59 242.687L41.088 237.808L53.142 197.054L36.783 164.91Z" fill="#CA987D"/>
<path d="M30.7561 198.489C30.1821 197.341 13.5361 169.789 13.5361 169.789L6.93506 192.462L14.3971 185.574L18.9891 193.897C18.9891 193.897 18.1281 208.247 18.4151 209.682C18.4151 211.117 25.3031 222.023 25.3031 222.023L30.7561 198.489Z" fill="#AB6B48"/>
<path d="M29.608 179.26L14.684 153.717C20.998 156.3 36.783 158.883 36.783 158.883L53.142 197.054L41.088 237.808L25.59 242.687L35.922 232.929L29.608 179.26Z" fill="#BB8061"/>
<path d="M261.217 164.91C261.217 164.91 277.002 156.3 283.316 153.717C283.316 153.717 294.509 169.215 297.953 174.381C297.953 174.381 289.056 216.57 286.76 224.032L272.41 242.687L256.912 237.808L244.858 197.054L261.217 164.91Z" fill="#CA987D"/>
<path d="M267.244 198.489C267.818 197.341 284.464 169.789 284.464 169.789L291.065 192.462L283.603 185.574L279.011 193.897C279.011 193.897 279.872 208.247 279.585 209.682C279.585 211.117 272.697 222.023 272.697 222.023L267.244 198.489Z" fill="#AB6B48"/>
<path d="M268.392 179.26L283.316 153.717C277.002 156.3 261.217 158.883 261.217 158.883L244.858 197.054L256.912 237.808L272.41 242.687L262.078 232.929L268.392 179.26Z" fill="#BB8061"/>
<path d="M258.347 70.2C238.544 36.908 201.808 14.235 201.808 14.235C181.144 9.93 149 7.634 149 7.634C149 7.634 117.143 9.93 96.192 14.235C96.192 14.235 59.456 36.908 39.653 70.2C39.653 70.2 25.016 111.815 24.442 141.376L35.061 264.499L108.533 331.944L149 343.424L189.467 331.944L262.939 264.499L273.558 141.376C272.984 111.815 258.347 70.2 258.347 70.2Z" fill="#CA987D"/>
<path d="M110.255 323.908L52.281 256.75L41.375 140.228L51.707 74.792C57.16 65.321 100.784 24.567 100.784 24.567L148.426 15.957L201.808 14.235C181.144 9.93 149 7.634 149 7.634C149 7.634 117.143 9.93 96.192 14.235C96.192 14.235 59.456 36.908 39.653 70.2C39.653 70.2 25.016 111.815 24.442 141.376L35.061 264.499L108.533 331.944L149 343.424L189.467 331.944L148.139 339.406L110.255 323.908Z" fill="#AB6B48"/>
<path d="M175.542 259.887L166.484 253.806L150.433 254.797L131.452 253.566L123.855 259.505L132.101 256.42L150.787 257.371L166.551 256.388L175.542 259.887Z" fill="#AB6B48"/>
<path d="M181.376 276.732L186.262 269.17L163.813 275.896L156.557 271.749L145.548 271.259L138.857 275.596L110.874 270.407L116.095 275.784L141.887 290.59L151.166 287.507L159.542 290.534L181.376 276.732Z" fill="#DA7C87"/>
<path d="M192.381 272.657L185.641 267.377L164.302 274.821L156.15 270.439L145.527 270.427L138.179 274.924L110.752 269.032L105.487 273.045L111.393 271.599L139.136 278.632L146.168 272.994L156.217 273.021L164.112 278.558L186.29 270.231L192.381 272.657Z" fill="#CB5F6C"/>
<path d="M121.735 183.852C121.735 183.852 120.3 167.78 116.569 162.614C115.995 162.04 74.38 163.188 65.196 163.475L68.64 182.13L74.093 186.435C74.093 186.722 118.865 185.287 121.735 183.852Z" fill="white"/>
<path d="M83.5641 178.399L81.2681 164.049L92.1741 154.578L105.95 159.744L108.533 174.094L97.3401 183.278L83.5641 178.399Z" fill="#4E60A3"/>
<path d="M92.461 156.013L104.802 160.605L107.098 173.52L97.053 181.843L84.712 177.251L82.416 164.336L92.461 156.013ZM92.174 153.143L79.833 163.475L82.416 179.26L97.34 184.713L109.681 174.381L107.098 158.596L92.174 153.143Z" fill="#43559B"/>
<path d="M92.174 154.004L106.237 159.17L108.82 174.094L97.34 183.852L83.277 178.686L80.694 163.762L92.174 154.004ZM91.887 152.569L78.972 163.475L81.842 180.121L97.627 185.861L110.542 174.955L107.672 158.309L91.887 152.569Z" fill="#253984"/>
<path d="M86.1471 171.798L88.1561 162.901L96.7661 160.031L103.367 166.345L101.645 174.955L93.0351 177.825L86.1471 171.798Z" fill="black"/>
<path d="M89.0171 161.753H94.1831V166.919H89.0171V161.753Z" fill="white"/>
<path d="M95.905 174.381H98.775V177.251H95.905V174.381Z" fill="white"/>
<path d="M54.577 154.291V188.444L77.25 212.552H109.394L132.067 188.444V154.291L109.394 130.183H77.25L54.577 154.291ZM65.196 163.475C74.38 163.188 115.995 162.04 116.569 162.614C120.3 167.78 121.735 183.852 121.735 183.852C118.865 185.287 74.093 186.722 74.093 186.722L68.64 182.13L65.196 163.475Z" fill="#CA987D"/>
<path d="M119.726 170.937L120.587 183.278L111.69 184.713L110.829 183.278L104.228 185.574H110.255L112.264 189.018L124.031 188.731L119.726 170.937Z" fill="#BB8061"/>
<path d="M121.161 179.547L115.708 164.336H66.057L66.631 168.928L62.613 167.493L60.891 162.04L121.735 161.466L119.152 163.475L122.883 183.852L121.161 179.547Z" fill="black"/>
<path d="M176.265 183.852C176.265 183.852 177.7 167.78 181.431 162.614C182.005 162.04 223.333 163.188 232.804 163.475L229.36 182.13L223.907 186.435C223.907 186.722 179.135 185.287 176.265 183.852Z" fill="white"/>
<path d="M192.05 178.399L189.467 164.049L200.66 154.578L214.436 159.744L216.732 174.094L205.826 183.278L192.05 178.399Z" fill="#4E60A3"/>
<path d="M200.947 156.013L213.288 160.605L215.584 173.52L205.539 181.843L193.198 177.251L190.902 164.336L200.947 156.013ZM200.373 153.143L188.032 163.475L190.615 179.26L205.539 184.713L217.88 174.381L215.297 158.596L200.373 153.143Z" fill="#43559B"/>
<path d="M200.66 154.004L214.723 159.17L217.306 174.094L205.826 183.852L191.763 178.686L189.18 163.762L200.66 154.004ZM200.373 152.569L187.458 163.475L190.328 180.121L206.113 185.861L219.028 174.955L216.158 158.309L200.373 152.569Z" fill="#152975"/>
<path d="M194.633 171.798L196.355 162.901L204.965 160.031L211.853 166.345L209.844 174.955L201.234 177.825L194.633 171.798Z" fill="black"/>
<path d="M197.503 161.753H202.669V166.919H197.503V161.753Z" fill="white"/>
<path d="M204.104 174.381H206.974V177.251H204.104V174.381Z" fill="white"/>
<path d="M220.75 129.896H188.606L165.933 154.004V188.157L188.606 212.265H220.75L243.423 188.157V154.291L220.75 129.896ZM229.36 182.13L223.907 186.435C223.907 186.435 179.135 185 176.265 183.565C176.265 183.565 177.7 167.493 181.431 162.327C182.005 161.753 223.333 162.901 232.804 163.188L229.36 182.13Z" fill="#CA987D"/>
<path d="M178.274 170.937L177.413 183.278L186.31 184.713L187.171 183.278L193.772 185.574H187.745L185.736 189.018L173.969 188.731L178.274 170.937Z" fill="#BB8061"/>
<path d="M176.839 179.547L182.292 164.336H231.943L231.369 168.928L235.387 167.493L237.109 162.04L176.265 161.466L178.848 163.475L175.117 183.852L176.839 179.547Z" fill="black"/>
<path d="M96.5186 120.089L66.0705 119.716L52.4897 159.09L71.3449 132.155L124.917 149.767L132.942 141.238L128.232 128.693L96.5186 120.089Z" fill="#2A232B"/>
<path d="M68.5554 129.761L52.5431 159.371L72.9912 136.224L124.971 150.049L132.996 141.52L132.394 139.882C128.415 143.555 123.644 147.671 123.644 147.671L106.442 129.311L113.782 143.403L92.1366 135.523L77.663 125.409L83.8824 133.579L68.5554 129.761Z" fill="#1B141C"/>
<path d="M78.0592 119.785L93.0815 131.255L83.3486 119.952L78.0592 119.785ZM111.282 124.014L123.492 140.69L117.455 125.767L111.282 124.014ZM65.034 121.957L74.2257 125.768L66.0705 119.716L65.034 121.957Z" fill="#3A353A"/>
<path d="M169.741 128.691L165.031 141.236L173.056 149.764L226.629 132.152L245.484 159.087L231.903 119.714L201.455 120.087L169.741 128.691Z" fill="#2A232B"/>
<path d="M214.144 133.295L220.364 125.125L205.89 135.238L184.245 143.119L191.585 129.026L174.382 147.386C174.382 147.386 169.611 143.271 165.633 139.597L165.031 141.236L173.056 149.764L225.036 135.94L245.484 159.087L229.471 129.477L214.144 133.295Z" fill="#1B141C"/>
<path d="M214.625 119.95L205.174 131.306L220.196 119.835L214.625 119.95ZM180.8 125.818L174.764 140.74L186.974 124.065L180.8 125.818ZM231.903 119.714L223.748 125.765L232.939 121.954L231.903 119.714Z" fill="#3A353A"/>
<path d="M250.01 204.129L237.095 210.069L232.962 226.342L230.637 249.848L209.973 261.213L203.516 239.774L188.276 237.449L167.612 239.774L154.18 246.231H144.107L130.675 239.774L110.011 237.449L94.7714 239.774L88.3139 261.213L67.6499 249.848L65.3252 226.342L61.1924 210.069L48.2774 204.129L37.9454 253.464L42.0782 277.227L114.919 357.3H183.368L256.209 277.486L260.342 253.722L258.275 216.01L250.01 204.129ZM174.069 300.991L164.254 304.607L158.313 302.024V294.534H139.716V302.024L133.775 304.607L123.959 300.991L104.845 268.445L107.686 259.405L120.601 264.312H141.007L147.465 262.246H150.564L157.022 264.312H177.427L190.342 259.405L193.184 268.445L174.069 300.991Z" fill="#2A232B"/>
<path d="M164.254 304.607L158.313 302.283L160.121 328.371L165.029 307.449L167.87 331.47L169.162 307.965L178.202 304.349L179.494 320.364L181.56 300.991L182.593 316.747L186.726 291.434L193.442 275.936L193.184 268.962L174.069 301.508L164.254 304.607ZM139.716 302.283L133.775 304.866L123.959 301.249L110.528 278.519C114.144 287.301 120.601 302.024 120.601 302.024L124.734 319.33L128.092 306.157L133.258 332.504L138.166 308.223L140.49 323.205L142.557 308.74L143.848 295.05H139.457L139.716 302.283ZM104.587 268.445L107.428 259.405L120.343 264.312H140.749L147.206 262.246H150.306L156.763 264.312H177.169L190.084 259.405L192.925 268.445L192.409 259.921L198.608 245.715L189.826 257.597L176.394 262.504L157.538 262.246L148.239 256.047L138.424 262.246L118.277 261.213L104.07 250.364L104.845 257.08L94.2548 240.032L104.587 268.445ZM78.7568 283.427C78.4985 281.619 76.9487 264.312 76.1738 254.497L72.8159 252.689C74.8823 263.796 79.0151 285.235 78.7568 283.427ZM88.0556 261.213L84.4394 259.146L86.5058 269.478L88.0556 261.213ZM82.1147 271.803C82.1147 270.77 82.373 263.796 82.6313 258.113L77.7236 255.53C79.5317 262.763 82.1147 273.095 82.1147 271.803ZM69.7163 267.154C69.7163 266.121 70.4912 257.597 71.0078 251.914L67.3916 249.848C67.3916 249.848 69.7163 268.962 69.7163 267.154ZM214.623 262.246C214.623 263.538 218.497 293.759 218.497 293.759L219.53 259.146L222.63 272.061L224.955 255.53L227.279 261.729L228.571 253.464L230.895 256.563L230.121 250.106L209.457 261.471L210.49 278.519C210.748 278.261 214.623 260.955 214.623 262.246ZM37.9454 253.464L42.0782 284.976L81.8564 328.887L114.661 357.3H183.11L216.689 328.629L255.951 285.235L260.083 253.722C260.083 253.722 254.917 273.095 254.401 274.386C253.626 275.678 248.46 281.36 248.46 281.36V270.512C248.46 270.512 246.135 282.393 246.135 283.427C246.135 284.46 216.172 313.906 216.172 313.906C216.172 313.906 215.139 304.607 215.139 303.574C215.139 302.541 212.814 317.522 212.814 317.522L211.523 298.408L208.423 322.43L186.468 341.802L185.435 334.828L182.593 344.385L148.239 339.478L116.985 343.352L95.5463 324.238L91.6718 310.806C91.6718 310.806 89.8637 318.039 89.8637 319.072C89.8637 320.105 83.1479 298.925 83.1479 298.925L84.1811 312.356L75.9155 303.316L69.1997 279.036V296.858L51.377 276.969L44.9195 253.722L47.7608 204.129L40.0118 217.044L37.9454 253.464Z" fill="#1B141C"/>
<path d="M152.785 248.233L149.126 251.957L144.907 248.19L129.688 244.875L134.144 222.059L137.782 220.832H160.168L163.935 222.274L168.885 245.198L157.068 247.372L152.785 248.233Z" fill="#CA987D"/>
<path d="M164.624 221.09L162.859 220.875L160.168 220.832L163.181 222.941L166.604 244.057L157.779 246.49L154.679 248.255L170.586 246.059L164.624 221.09Z" fill="#AB6B48"/>
<path d="M157.327 240.743L149.642 248.771H148.329L140.645 240.743L133.133 241.862L135.995 244.509L140.408 243.39L147.877 253.205H150.094L157.542 243.39L161.976 244.509L164.839 241.862L157.327 240.743Z" fill="#AB6B48"/>
<path d="M140.193 246.49L131.346 244.057L134.768 222.941L137.782 220.832L136.103 220.853L140.709 184.842L134.209 220.983L133.348 221.09L127.385 246.059L143.292 248.255L140.193 246.49Z" fill="#AB6B48"/>
<path d="M155.734 184.067L159.501 210.349L161.266 211.791L156.961 186.478L155.734 184.067Z" fill="#AB6B48"/>
<path d="M159.393 238.956C159.393 238.956 163.676 239.882 163.676 239.408C163.676 238.934 161.524 224.104 161.524 224.104L159.371 222.575V238.956H159.393Z" fill="#D2A58C"/>
<path d="M148.846 240.635L155.432 239.559L151.752 196.272L150.525 192.29L148.846 240.635Z" fill="#D2A58C"/>
<path d="M274.706 133.053L274.419 106.075L269.253 103.492L266.383 73.357L261.217 72.783L253.755 50.684L248.302 49.536L237.683 30.307L230.221 30.881L218.454 17.105L210.992 16.531L196.929 5.33802L188.893 7.34701L173.108 0.459015L162.489 4.47701L149 0.459015L135.511 4.47701L124.892 0.459015L109.107 7.34701L101.071 5.33802L87.008 16.531L79.546 17.105L67.779 30.881L60.604 30.307L49.698 49.536L44.245 50.684L36.496 72.783L31.617 73.357L28.747 103.492L23.581 106.075L23.294 133.053L19.276 136.784L31.043 171.798L39.653 161.179L35.061 138.219L45.106 133.053L43.097 108.084L50.559 104.927L53.429 85.698L66.057 82.828L69.788 66.469L84.425 64.173L87.295 50.684L100.497 51.258L109.107 41.5L122.883 49.249L136.946 42.074L148.426 48.675V49.249L149 48.962L149.574 49.249V48.675L161.054 42.074L175.117 49.249L188.893 41.5L197.503 51.258L210.705 50.684L213.575 64.173L228.212 66.469L231.943 82.828L244.858 85.698L247.441 104.927L254.903 108.084L252.894 133.053L262.939 138.219L258.347 161.179L266.957 171.798L278.724 136.784L274.706 133.053Z" fill="#2A232B"/>
<path d="M135.798 7.34702C134.937 12.8 134.937 18.253 134.937 23.993C135.224 29.446 135.798 34.899 136.946 40.352C137.807 34.899 137.807 29.446 137.807 23.706C137.52 18.253 137.233 12.8 135.798 7.34702ZM107.098 25.715C107.098 30.594 107.385 35.473 108.533 40.352C109.681 35.473 109.968 30.594 109.968 25.715C109.968 20.836 109.681 15.957 108.533 11.078C107.385 15.957 107.098 20.836 107.098 25.715ZM87.869 20.836C86.434 24.854 85.8601 29.159 85.2861 33.177C85.2861 35.473 85.573 37.482 85.86 39.778C86.147 42.074 86.434 44.083 87.008 46.379C87.582 44.083 87.869 41.787 87.869 39.778C88.156 37.482 88.1561 35.473 88.1561 33.177C88.4431 29.159 88.443 24.854 87.869 20.836ZM69.501 42.074C69.501 40.065 69.214 38.056 68.927 35.76C68.353 37.769 67.779 39.778 67.492 41.787L66.631 47.814C66.918 50.397 67.205 53.267 67.492 55.85C68.066 58.433 68.353 61.016 69.501 63.886C70.075 61.016 70.075 58.433 70.075 55.85C70.075 53.267 69.788 50.684 69.501 47.814V42.074ZM51.133 53.841C49.698 58.72 49.124 63.312 48.837 68.191C49.698 73.07 50.559 77.662 52.281 82.541C52.568 77.662 52.281 72.783 51.707 68.191C51.994 63.599 51.994 58.72 51.133 53.841ZM39.653 85.124C39.079 82.828 38.505 80.532 37.644 78.236C37.357 80.532 37.357 83.115 37.357 85.411C37.357 87.707 37.644 90.003 37.931 92.299C38.792 96.891 39.94 101.483 41.949 106.075C42.236 101.196 41.662 96.604 40.801 92.012C40.514 89.716 40.227 87.133 39.653 85.124ZM29.895 110.667C29.321 114.972 29.608 119.277 30.182 123.295C30.756 127.6 31.617 131.618 33.339 135.636C33.913 131.331 33.626 127.026 33.052 123.008C32.191 118.99 31.33 114.685 29.895 110.667ZM160.193 23.706C159.906 29.159 159.906 34.612 161.054 40.352C162.489 34.899 162.776 29.446 163.063 23.993C163.35 18.54 163.35 13.087 162.202 7.34702C160.767 12.8 160.48 18.253 160.193 23.706ZM188.032 25.715C188.032 30.594 188.319 35.473 189.467 40.352C190.615 35.473 190.902 30.594 190.902 25.715C190.902 20.836 190.615 15.957 189.467 11.078C188.319 15.957 188.032 20.836 188.032 25.715ZM210.131 20.836C209.27 25.141 209.557 29.159 209.844 33.464C209.844 35.76 209.844 37.769 210.131 40.065C210.418 42.361 210.705 44.657 210.992 46.666C211.566 44.37 211.853 42.361 212.14 40.065C212.427 37.769 212.427 35.76 212.714 33.464C212.427 28.872 211.853 24.854 210.131 20.836ZM230.508 41.787C230.221 39.778 229.647 37.769 229.073 35.76C228.786 37.769 228.499 40.065 228.499 42.074C228.499 44.083 228.499 46.092 228.786 48.101C228.499 50.684 228.499 53.267 228.212 56.137C228.212 58.72 228.212 61.59 228.786 64.173C229.647 61.59 230.221 59.007 230.795 56.137C231.082 53.554 231.369 50.971 231.656 48.101C231.369 45.805 231.082 43.796 230.508 41.787ZM246.867 53.841C246.006 58.72 246.006 63.312 246.293 68.191C245.719 73.07 245.145 77.662 245.719 82.541C247.441 77.949 248.589 73.07 249.163 68.191C248.876 63.312 248.302 58.72 246.867 53.841ZM258.347 85.124C257.773 87.42 257.486 89.716 257.199 92.012C256.338 96.604 255.764 101.196 256.051 106.075C258.06 101.77 259.208 97.178 260.069 92.299C260.356 90.003 260.643 87.707 260.643 85.411C260.643 83.115 260.643 80.532 260.356 78.236C259.208 80.532 258.634 82.828 258.347 85.124ZM268.392 110.667C266.67 114.685 265.809 118.703 265.235 123.008C264.661 127.313 264.374 131.331 264.948 135.636C266.67 131.618 267.531 127.6 268.105 123.295C268.392 119.277 268.966 115.259 268.392 110.667Z" fill="#1B141C"/>
</g>
<defs>
<clipPath id="clip0_39_66">
<rect width="298" height="439" fill="white"/>
</clipPath>
</defs>
</svg>
